{
  "source": "C:\\Users\\Peter\\Desktop\\stuff\\MIUN\\quantitative_research\\video_compression\\videos\\BVI-HD\\BridgeRiver_1920x1080_30fps.mp4",
  "output": "C:\\Users\\Peter\\Desktop\\stuff\\MIUN\\quantitative_research\\video_compression\\compressed_videos\\BVI-HD\\vp9\\12\\BridgeRiver_1920x1080_30fps_vp9.webm",
  "codec": "vp9",
  "ok": "Input #0, mov,mp4,m4a,3gp,3g2,mj2, from 'C:\\Users\\Peter\\Desktop\\stuff\\MIUN\\quantitative_research\\video_compression\\videos\\BVI-HD\\BridgeRiver_1920x1080_30fps.mp4':\n  Metadata:\n    major_brand     : isom\n    minor_version   : 512\n    compatible_brands: isomiso2avc1mp41\n    encoder         : Lavf54.28.101\n  Duration: 00:00:05.00, start: 0.000000, bitrate: 274913 kb/s\n  Stream #0:0[0x1](und): Video: h264 (High 4:4:4 Predictive) (avc1 / 0x31637661), yuv420p(progressive), 1920x1080, 274910 kb/s, 30 fps, 30 tbr, 30 tbn (default)\n    Metadata:\n      handler_name    : VideoHandler\n      vendor_id       : [0][0][0][0]\n[out#0/webm @ 000002cee7019380] Codec AVOption b:a (set bitrate (in bits/s)) has not been used for any stream. The most likely reason is either wrong type (e.g. a video option with no video streams) or that it is a private option of some decoder which was not actually used for any stream.\nStream mapping:\n  Stream #0:0 -> #0:0 (h264 (native) -> vp9 (libvpx-vp9))\nPress [q] to stop, [?] for help\n[libvpx-vp9 @ 000002cee7ad0340] v1.15.2-100-g40561f514\nOutput #0, webm, to 'C:\\Users\\Peter\\Desktop\\stuff\\MIUN\\quantitative_research\\video_compression\\compressed_videos\\BVI-HD\\vp9\\12\\BridgeRiver_1920x1080_30fps_vp9.webm':\n  Metadata:\n    major_brand     : isom\n    minor_version   : 512\n    compatible_brands: isomiso2avc1mp41\n    encoder         : Lavf62.3.100\n  Stream #0:0(und): Video: vp9, yuv420p(tv, progressive), 1920x1080, q=2-31, 12000 kb/s, 30 fps, 1k tbn (default)\n    Metadata:\n      encoder         : Lavc62.11.100 libvpx-vp9\n      handler_name    : VideoHandler\n      vendor_id       : [0][0][0][0]\n    Side data:\n      cpb: bitrate max/min/avg: 0/0/0 buffer size: 12000000 vbv_delay: N/A\nframe=    0 fps=0.0 q=0.0 size=       0KiB time=N/A bitrate=N/A speed=N/A elapsed=0:00:01.08    \nframe=    0 fps=0.0 q=0.0 size=       0KiB time=N/A bitrate=N/A speed=N/A elapsed=0:00:01.63    \nframe=    0 fps=0.0 q=0.0 size=       0KiB time=N/A bitrate=N/A speed=N/A elapsed=0:00:02.31    \nframe=    1 fps=0.3 q=12.0 size=       1KiB time=00:00:00.03 bitrate= 152.2kbits/s speed=0.0112x elapsed=0:00:02.98    \nframe=    3 fps=0.8 q=45.0 size=       1KiB time=00:00:00.10 bitrate=  50.7kbits/s speed=0.0279x elapsed=0:00:03.58    \nframe=    5 fps=1.2 q=47.0 size=       1KiB time=00:00:00.16 bitrate=  30.4kbits/s speed=0.04x elapsed=0:00:04.16    \nframe=    7 fps=1.4 q=47.0 size=       1KiB time=00:00:00.23 bitrate=  21.7kbits/s speed=0.0476x elapsed=0:00:04.89    \nframe=    8 fps=1.5 q=47.0 size=       1KiB time=00:00:00.26 bitrate=  19.0kbits/s speed=0.0493x elapsed=0:00:05.40    \nframe=    9 fps=1.5 q=47.0 size=       1KiB time=00:00:00.30 bitrate=  16.9kbits/s speed=0.0507x elapsed=0:00:05.91    \nframe=   10 fps=1.6 q=47.0 size=       1KiB time=00:00:00.33 bitrate=  15.2kbits/s speed=0.0517x elapsed=0:00:06.44    \nframe=   11 fps=1.6 q=23.0 size=       1KiB time=00:00:00.36 bitrate=  13.8kbits/s speed=0.0527x elapsed=0:00:06.95    \nframe=   13 fps=1.7 q=47.0 size=       1KiB time=00:00:00.43 bitrate=  11.7kbits/s speed=0.0581x elapsed=0:00:07.46    \nframe=   14 fps=1.8 q=47.0 size=       1KiB time=00:00:00.46 bitrate=  10.9kbits/s speed=0.0585x elapsed=0:00:07.97    \nframe=   15 fps=1.8 q=47.0 size=       1KiB time=00:00:00.50 bitrate=  10.1kbits/s speed=0.0588x elapsed=0:00:08.49    \nframe=   17 fps=1.9 q=47.0 size=       1KiB time=00:00:00.56 bitrate=   9.0kbits/s speed=0.0628x elapsed=0:00:09.01    \nframe=   18 fps=1.9 q=47.0 size=       1KiB time=00:00:00.60 bitrate=   8.5kbits/s speed=0.063x elapsed=0:00:09.52    \nframe=   19 fps=1.9 q=47.0 size=       1KiB time=00:00:00.63 bitrate=   8.0kbits/s speed=0.063x elapsed=0:00:10.04    \nframe=   20 fps=1.9 q=47.0 size=       1KiB time=00:00:00.66 bitrate=   7.6kbits/s speed=0.0631x elapsed=0:00:10.56    \nframe=   20 fps=1.8 q=47.0 size=       1KiB time=00:00:00.66 bitrate=   7.6kbits/s speed=0.0602x elapsed=0:00:11.07    \nframe=   21 fps=1.8 q=24.0 size=       1KiB time=00:00:00.70 bitrate=   7.2kbits/s speed=0.0604x elapsed=0:00:11.59    \nframe=   23 fps=1.9 q=47.0 size=       1KiB time=00:00:00.76 bitrate=   6.6kbits/s speed=0.0633x elapsed=0:00:12.11    \nframe=   24 fps=1.9 q=47.0 size=       1KiB time=00:00:00.80 bitrate=   6.3kbits/s speed=0.0634x elapsed=0:00:12.62    \nframe=   26 fps=2.0 q=47.0 size=       1KiB time=00:00:00.86 bitrate=   5.9kbits/s speed=0.066x elapsed=0:00:13.14    \nframe=   26 fps=1.9 q=47.0 size=       1KiB time=00:00:00.86 bitrate=   5.9kbits/s speed=0.0635x elapsed=0:00:13.65    \nframe=   27 fps=1.9 q=47.0 size=       1KiB time=00:00:00.90 bitrate=   5.6kbits/s speed=0.0635x elapsed=0:00:14.16    \nframe=   28 fps=1.9 q=47.0 size=       1KiB time=00:00:00.93 bitrate=   5.4kbits/s speed=0.0635x elapsed=0:00:14.68    \nframe=   28 fps=1.8 q=47.0 size=       1KiB time=00:00:00.93 bitrate=   5.4kbits/s speed=0.0614x elapsed=0:00:15.20    \nframe=   29 fps=1.8 q=47.0 size=       1KiB time=00:00:00.96 bitrate=   5.2kbits/s speed=0.0615x elapsed=0:00:15.71    \nframe=   30 fps=1.8 q=47.0 size=       1KiB time=00:00:01.00 bitrate=   5.1kbits/s speed=0.0616x elapsed=0:00:16.24    \nframe=   30 fps=1.8 q=47.0 size=       1KiB time=00:00:01.00 bitrate=   5.1kbits/s speed=0.0597x elapsed=0:00:16.74    \nframe=   31 fps=1.8 q=24.0 size=       1KiB time=00:00:01.03 bitrate=   4.9kbits/s speed=0.0599x elapsed=0:00:17.26    \nframe=   32 fps=1.8 q=47.0 size=       1KiB time=00:00:01.06 bitrate=   4.8kbits/s speed=0.06x elapsed=0:00:17.77    \nframe=   33 fps=1.8 q=47.0 size=       1KiB time=00:00:01.10 bitrate=   4.6kbits/s speed=0.0601x elapsed=0:00:18.29    \nframe=   34 fps=1.8 q=47.0 size=       1KiB time=00:00:01.13 bitrate=   4.5kbits/s speed=0.0603x elapsed=0:00:18.81    \nframe=   35 fps=1.8 q=47.0 size=       1KiB time=00:00:01.16 bitrate=   4.3kbits/s speed=0.0604x elapsed=0:00:19.33    \nframe=   36 fps=1.8 q=47.0 size=       1KiB time=00:00:01.20 bitrate=   4.2kbits/s speed=0.0605x elapsed=0:00:19.83    \nframe=   37 fps=1.8 q=47.0 size=       1KiB time=00:00:01.23 bitrate=   4.1kbits/s speed=0.0606x elapsed=0:00:20.35    \nframe=   37 fps=1.8 q=47.0 size=       1KiB time=00:00:01.23 bitrate=   4.1kbits/s speed=0.0591x elapsed=0:00:20.87    \nframe=   38 fps=1.8 q=47.0 size=       1KiB time=00:00:01.26 bitrate=   4.0kbits/s speed=0.0592x elapsed=0:00:21.38    \nframe=   39 fps=1.8 q=47.0 size=       1KiB time=00:00:01.30 bitrate=   3.9kbits/s speed=0.0594x elapsed=0:00:21.90    \nframe=   40 fps=1.8 q=47.0 size=       1KiB time=00:00:01.33 bitrate=   3.8kbits/s speed=0.0595x elapsed=0:00:22.42    \nframe=   42 fps=1.8 q=48.0 size=       1KiB time=00:00:01.40 bitrate=   3.6kbits/s speed=0.0611x elapsed=0:00:22.93    \nframe=   43 fps=1.8 q=48.0 size=       1KiB time=00:00:01.43 bitrate=   3.5kbits/s speed=0.0611x elapsed=0:00:23.45    \nframe=   44 fps=1.8 q=48.0 size=       1KiB time=00:00:01.46 bitrate=   3.5kbits/s speed=0.0612x elapsed=0:00:23.96    \nframe=   45 fps=1.8 q=48.0 size=       1KiB time=00:00:01.50 bitrate=   3.4kbits/s speed=0.0613x elapsed=0:00:24.48    \nframe=   46 fps=1.8 q=48.0 size=       1KiB time=00:00:01.53 bitrate=   3.3kbits/s speed=0.0612x elapsed=0:00:25.05    \nframe=   48 fps=1.9 q=48.0 size=       1KiB time=00:00:01.60 bitrate=   3.2kbits/s speed=0.0625x elapsed=0:00:25.59    \nframe=   49 fps=1.9 q=48.0 size=       1KiB time=00:00:01.63 bitrate=   3.1kbits/s speed=0.0626x elapsed=0:00:26.11    \nframe=   50 fps=1.9 q=48.0 size=       1KiB time=00:00:01.66 bitrate=   3.0kbits/s speed=0.0626x elapsed=0:00:26.62    \nframe=   52 fps=1.9 q=48.0 size=       1KiB time=00:00:01.73 bitrate=   2.9kbits/s speed=0.0639x elapsed=0:00:27.14    \nframe=   53 fps=1.9 q=48.0 size=       1KiB time=00:00:01.76 bitrate=   2.9kbits/s speed=0.0639x elapsed=0:00:27.64    \nframe=   54 fps=1.9 q=48.0 size=       1KiB time=00:00:01.80 bitrate=   2.8kbits/s speed=0.0639x elapsed=0:00:28.17    \nframe=   55 fps=1.9 q=48.0 size=       1KiB time=00:00:01.83 bitrate=   2.8kbits/s speed=0.0638x elapsed=0:00:28.73    \nframe=   56 fps=1.9 q=48.0 size=       1KiB time=00:00:01.86 bitrate=   2.7kbits/s speed=0.0638x elapsed=0:00:29.27    \nframe=   58 fps=1.9 q=48.0 size=       1KiB time=00:00:01.93 bitrate=   2.6kbits/s speed=0.0649x elapsed=0:00:29.79    \nframe=   59 fps=1.9 q=48.0 size=       1KiB time=00:00:01.96 bitrate=   2.6kbits/s speed=0.0648x elapsed=0:00:30.33    \nframe=   60 fps=1.9 q=48.0 size=       1KiB time=00:00:02.00 bitrate=   2.5kbits/s speed=0.0648x elapsed=0:00:30.87    \nframe=   62 fps=2.0 q=48.0 size=       1KiB time=00:00:02.06 bitrate=   2.5kbits/s speed=0.0658x elapsed=0:00:31.40    \nframe=   63 fps=2.0 q=48.0 size=       1KiB time=00:00:02.10 bitrate=   2.4kbits/s speed=0.0657x elapsed=0:00:31.96    \nframe=   64 fps=2.0 q=48.0 size=       1KiB time=00:00:02.13 bitrate=   2.4kbits/s speed=0.0657x elapsed=0:00:32.49    \nframe=   65 fps=2.0 q=48.0 size=       1KiB time=00:00:02.16 bitrate=   2.3kbits/s speed=0.0656x elapsed=0:00:33.04    \nframe=   67 fps=2.0 q=48.0 size=       1KiB time=00:00:02.23 bitrate=   2.3kbits/s speed=0.0665x elapsed=0:00:33.58    \nframe=   68 fps=2.0 q=48.0 size=       1KiB time=00:00:02.26 bitrate=   2.2kbits/s speed=0.0664x elapsed=0:00:34.12    \nframe=   69 fps=2.0 q=48.0 size=       1KiB time=00:00:02.30 bitrate=   2.2kbits/s speed=0.0664x elapsed=0:00:34.64    \nframe=   70 fps=2.0 q=48.0 size=       1KiB time=00:00:02.33 bitrate=   2.2kbits/s speed=0.0663x elapsed=0:00:35.16    \nframe=   71 fps=2.0 q=28.0 size=       1KiB time=00:00:02.36 bitrate=   2.1kbits/s speed=0.0663x elapsed=0:00:35.68    \nframe=   72 fps=2.0 q=48.0 size=       1KiB time=00:00:02.40 bitrate=   2.1kbits/s speed=0.0663x elapsed=0:00:36.22    \nframe=   74 fps=2.0 q=47.0 size=       1KiB time=00:00:02.46 bitrate=   2.1kbits/s speed=0.0671x elapsed=0:00:36.75    \nframe=   75 fps=2.0 q=47.0 size=       1KiB time=00:00:02.50 bitrate=   2.0kbits/s speed=0.0669x elapsed=0:00:37.36    \nframe=   76 fps=2.0 q=47.0 size=       1KiB time=00:00:02.53 bitrate=   2.0kbits/s speed=0.0669x elapsed=0:00:37.87    \nframe=   78 fps=2.0 q=48.0 size=       1KiB time=00:00:02.60 bitrate=   2.0kbits/s speed=0.0677x elapsed=0:00:38.38    \nframe=   79 fps=2.0 q=48.0 size=       1KiB time=00:00:02.63 bitrate=   1.9kbits/s speed=0.0677x elapsed=0:00:38.90    \nframe=   80 fps=2.0 q=48.0 size=       1KiB time=00:00:02.66 bitrate=   1.9kbits/s speed=0.0676x elapsed=0:00:39.43    \nframe=   81 fps=2.0 q=28.0 size=       1KiB time=00:00:02.70 bitrate=   1.9kbits/s speed=0.0676x elapsed=0:00:39.95    \nframe=   83 fps=2.1 q=47.0 size=       1KiB time=00:00:02.76 bitrate=   1.8kbits/s speed=0.0684x elapsed=0:00:40.46    \nframe=   84 fps=2.0 q=48.0 size=       1KiB time=00:00:02.80 bitrate=   1.8kbits/s speed=0.0683x elapsed=0:00:40.98    \nframe=   85 fps=2.0 q=48.0 size=       1KiB time=00:00:02.83 bitrate=   1.8kbits/s speed=0.0683x elapsed=0:00:41.49    \nframe=   87 fps=2.1 q=48.0 size=       1KiB time=00:00:02.90 bitrate=   1.7kbits/s speed=0.069x elapsed=0:00:42.03    \nframe=   88 fps=2.1 q=48.0 size=       1KiB time=00:00:02.93 bitrate=   1.7kbits/s speed=0.0689x elapsed=0:00:42.57    \nframe=   90 fps=2.1 q=48.0 size=       1KiB time=00:00:03.00 bitrate=   1.7kbits/s speed=0.0696x elapsed=0:00:43.10    \nframe=   90 fps=2.1 q=48.0 size=       1KiB time=00:00:03.00 bitrate=   1.7kbits/s speed=0.0688x elapsed=0:00:43.63    \nframe=   91 fps=2.1 q=28.0 size=       1KiB time=00:00:03.03 bitrate=   1.7kbits/s speed=0.0687x elapsed=0:00:44.15    \nframe=   92 fps=2.1 q=48.0 size=       1KiB time=00:00:03.06 bitrate=   1.7kbits/s speed=0.0687x elapsed=0:00:44.67    \nframe=   93 fps=2.1 q=47.0 size=       1KiB time=00:00:03.10 bitrate=   1.6kbits/s speed=0.0686x elapsed=0:00:45.18    \nframe=   95 fps=2.1 q=47.0 size=       1KiB time=00:00:03.16 bitrate=   1.6kbits/s speed=0.0693x elapsed=0:00:45.69    \nframe=   96 fps=2.1 q=47.0 size=       1KiB time=00:00:03.20 bitrate=   1.6kbits/s speed=0.0692x elapsed=0:00:46.23    \nframe=   98 fps=2.1 q=48.0 size=       1KiB time=00:00:03.23 bitrate=   1.6kbits/s speed=0.0692x elapsed=0:00:46.75    \nframe=   99 fps=2.1 q=48.0 size=       1KiB time=00:00:03.30 bitrate=   1.5kbits/s speed=0.0697x elapsed=0:00:47.33    \nframe=  100 fps=2.1 q=48.0 size=       1KiB time=00:00:03.33 bitrate=   1.5kbits/s speed=0.0696x elapsed=0:00:47.87    \nframe=  101 fps=2.1 q=27.0 size=       1KiB time=00:00:03.36 bitrate=   1.5kbits/s speed=0.0696x elapsed=0:00:48.38    \nframe=  103 fps=2.1 q=48.0 size=       1KiB time=00:00:03.43 bitrate=   1.5kbits/s speed=0.0702x elapsed=0:00:48.90    \nframe=  104 fps=2.1 q=48.0 size=       1KiB time=00:00:03.46 bitrate=   1.5kbits/s speed=0.0701x elapsed=0:00:49.41    \nframe=  106 fps=2.1 q=48.0 size=       1KiB time=00:00:03.53 bitrate=   1.4kbits/s speed=0.0708x elapsed=0:00:49.93    \nframe=  107 fps=2.1 q=48.0 size=       1KiB time=00:00:03.56 bitrate=   1.4kbits/s speed=0.0707x elapsed=0:00:50.45    \nframe=  108 fps=2.1 q=48.0 size=       1KiB time=00:00:03.60 bitrate=   1.4kbits/s speed=0.0706x elapsed=0:00:50.99    \nframe=  110 fps=2.1 q=48.0 size=       1KiB time=00:00:03.66 bitrate=   1.4kbits/s speed=0.0712x elapsed=0:00:51.52    \nframe=  111 fps=2.1 q=28.0 size=       1KiB time=00:00:03.70 bitrate=   1.4kbits/s speed=0.0711x elapsed=0:00:52.05    \nframe=  114 fps=2.2 q=48.0 size=       1KiB time=00:00:03.80 bitrate=   1.3kbits/s speed=0.0723x elapsed=0:00:52.57    \nframe=  115 fps=2.2 q=48.0 size=       1KiB time=00:00:03.83 bitrate=   1.3kbits/s speed=0.0722x elapsed=0:00:53.08    \nframe=  117 fps=2.2 q=48.0 size=       1KiB time=00:00:03.90 bitrate=   1.3kbits/s speed=0.0728x elapsed=0:00:53.60    \nframe=  119 fps=2.2 q=48.0 size=       1KiB time=00:00:03.96 bitrate=   1.3kbits/s speed=0.0733x elapsed=0:00:54.12    \nframe=  120 fps=2.2 q=48.0 size=       1KiB time=00:00:04.00 bitrate=   1.3kbits/s speed=0.0732x elapsed=0:00:54.63    \nframe=  122 fps=2.2 q=50.0 size=       1KiB time=00:00:04.06 bitrate=   1.2kbits/s speed=0.0737x elapsed=0:00:55.16    \nframe=  123 fps=2.2 q=49.0 size=       1KiB time=00:00:04.10 bitrate=   1.2kbits/s speed=0.0736x elapsed=0:00:55.67    \nframe=  125 fps=2.2 q=49.0 size=       1KiB time=00:00:04.13 bitrate=   1.2kbits/s speed=0.0736x elapsed=0:00:56.18    \nframe=  126 fps=2.2 q=49.0 size=       1KiB time=00:00:04.20 bitrate=   1.2kbits/s speed=0.0739x elapsed=0:00:56.85    \nframe=  126 fps=2.2 q=49.0 size=       1KiB time=00:00:04.20 bitrate=   1.2kbits/s speed=0.0732x elapsed=0:00:57.39    \nframe=  126 fps=2.2 q=49.0 size=       1KiB time=00:00:04.20 bitrate=   1.2kbits/s speed=0.0725x elapsed=0:00:57.91    \nframe=  126 fps=2.2 q=49.0 size=       1KiB time=00:00:04.20 bitrate=   1.2kbits/s speed=0.0719x elapsed=0:00:58.43    \nframe=  126 fps=2.1 q=49.0 size=       1KiB time=00:00:04.20 bitrate=   1.2kbits/s speed=0.0712x elapsed=0:00:58.94    \nframe=  126 fps=2.1 q=49.0 size=       1KiB time=00:00:04.20 bitrate=   1.2kbits/s speed=0.0706x elapsed=0:00:59.47    \nframe=  126 fps=2.1 q=49.0 size=       1KiB time=00:00:04.20 bitrate=   1.2kbits/s speed=0.07x elapsed=0:00:59.97    \nframe=  126 fps=2.1 q=49.0 size=       1KiB time=00:00:04.20 bitrate=   1.2kbits/s speed=0.0694x elapsed=0:01:00.49    \nframe=  126 fps=2.1 q=49.0 size=       1KiB time=00:00:04.20 bitrate=   1.2kbits/s speed=0.0688x elapsed=0:01:01.01    \nframe=  126 fps=2.0 q=49.0 size=       1KiB time=00:00:04.20 bitrate=   1.2kbits/s speed=0.0683x elapsed=0:01:01.53    \nframe=  126 fps=2.0 q=49.0 size=       1KiB time=00:00:04.20 bitrate=   1.2kbits/s speed=0.0677x elapsed=0:01:02.04    \nframe=  126 fps=2.0 q=49.0 size=       1KiB time=00:00:04.20 bitrate=   1.2kbits/s speed=0.0671x elapsed=0:01:02.55    \nframe=  126 fps=2.0 q=49.0 size=       1KiB time=00:00:04.20 bitrate=   1.2kbits/s speed=0.0666x elapsed=0:01:03.07    \nframe=  126 fps=2.0 q=49.0 size=       1KiB time=00:00:04.20 bitrate=   1.2kbits/s speed=0.066x elapsed=0:01:03.58    \nframe=  126 fps=2.0 q=49.0 size=       1KiB time=00:00:04.20 bitrate=   1.2kbits/s speed=0.0655x elapsed=0:01:04.11    \nframe=  126 fps=1.9 q=49.0 size=       1KiB time=00:00:04.20 bitrate=   1.2kbits/s speed=0.065x elapsed=0:01:04.63    \nframe=  126 fps=1.9 q=49.0 size=       1KiB time=00:00:04.20 bitrate=   1.2kbits/s speed=0.0644x elapsed=0:01:05.18    \nframe=  126 fps=1.9 q=49.0 size=       1KiB time=00:00:04.20 bitrate=   1.2kbits/s speed=0.0639x elapsed=0:01:05.69    \nframe=  126 fps=1.9 q=49.0 size=       1KiB time=00:00:04.20 bitrate=   1.2kbits/s speed=0.0634x elapsed=0:01:06.24    \nframe=  126 fps=1.9 q=49.0 size=       1KiB time=00:00:04.20 bitrate=   1.2kbits/s speed=0.0628x elapsed=0:01:06.83    \nframe=  126 fps=1.9 q=49.0 size=       1KiB time=00:00:04.20 bitrate=   1.2kbits/s speed=0.0623x elapsed=0:01:07.37    \nframe=  126 fps=1.9 q=49.0 size=       1KiB time=00:00:04.20 bitrate=   1.2kbits/s speed=0.0619x elapsed=0:01:07.89    \n[out#0/webm @ 000002cee7019380] video:5289KiB audio:0KiB subtitle:0KiB other streams:0KiB global headers:0KiB muxing overhead: 0.035025%\nframe=  150 fps=2.2 q=48.0 Lsize=    5291KiB time=00:00:05.00 bitrate=8668.9kbits/s speed=0.0736x elapsed=0:01:07.95    \n",
  "seconds": 69.71540856361389,
  "probe_out": {}
}